<svg width="535" height="626" viewBox="0 0 535 626" fill="none" xmlns="http://www.w3.org/2000/svg">
<path fill-rule="evenodd" clip-rule="evenodd" d="M29.0693 65.3377C28.1036 65.3377 27.213 65.8577 26.7395 66.6981L5.68936 104.062C5.23165 104.874 5.23165 105.866 5.68936 106.679L3.37742 107.977L5.68936 106.679L26.7395 144.043C27.213 144.883 28.1036 145.403 29.0693 145.403H70.9307C71.8964 145.403 72.787 144.883 73.2605 144.043L94.3106 106.679C94.7683 105.866 94.7683 104.874 94.3106 104.062L73.2605 66.6981C72.787 65.8577 71.8964 65.3377 70.9307 65.3377H29.0693ZM22.08 64.0812C23.5004 61.5602 26.1722 60 29.0693 60H70.9307C73.8278 60 76.4996 61.5602 77.92 64.0812L98.9701 101.445C100.343 103.882 100.343 106.858 98.9701 109.296L77.92 146.659C76.4997 149.181 73.8278 150.741 70.9307 150.741H29.0693C26.1722 150.741 23.5004 149.181 22.08 146.659L1.02985 109.296L3.35961 107.987L1.02985 109.296C-0.343283 106.858 -0.343284 103.882 1.02985 101.445L22.08 64.0812Z" fill="#E4E2DD" style="fill:#E4E2DD;fill:color(display-p3 0.8941 0.8863 0.8667);fill-opacity:1;"/>
<path fill-rule="evenodd" clip-rule="evenodd" d="M111.069 14.3377C110.104 14.3377 109.213 14.8577 108.74 15.6981L87.6894 53.0619C87.2316 53.8744 87.2317 54.8664 87.6894 55.6788L85.3774 56.9772L87.6894 55.6788L108.74 93.0426C109.213 93.883 110.104 94.403 111.069 94.403H152.931C153.896 94.403 154.787 93.883 155.26 93.0426L176.311 55.6788C176.768 54.8664 176.768 53.8744 176.311 53.0619L155.26 15.6981C154.787 14.8577 153.896 14.3377 152.931 14.3377H111.069ZM104.08 13.0812C105.5 10.5602 108.172 9 111.069 9H152.931C155.828 9 158.5 10.5602 159.92 13.0812L180.97 50.4451C182.343 52.8824 182.343 55.8584 180.97 58.2957L159.92 95.6595C158.5 98.1806 155.828 99.7407 152.931 99.7407H111.069C108.172 99.7407 105.5 98.1806 104.08 95.6595L83.0299 58.2957L85.3596 56.9872L83.0299 58.2957C81.6567 55.8584 81.6567 52.8824 83.0299 50.4451L104.08 13.0812Z" fill="#E4E2DD" style="fill:#E4E2DD;fill:color(display-p3 0.8941 0.8863 0.8667);fill-opacity:1;"/>
<path fill-rule="evenodd" clip-rule="evenodd" d="M111.069 111.338C110.104 111.338 109.213 111.858 108.74 112.698L87.6894 150.062C87.2316 150.874 87.2317 151.866 87.6894 152.679L85.3774 153.977L87.6894 152.679L108.74 190.043C109.213 190.883 110.104 191.403 111.069 191.403H152.931C153.896 191.403 154.787 190.883 155.26 190.043L176.311 152.679C176.768 151.866 176.768 150.874 176.311 150.062L155.26 112.698C154.787 111.858 153.896 111.338 152.931 111.338H111.069ZM104.08 110.081C105.5 107.56 108.172 106 111.069 106H152.931C155.828 106 158.5 107.56 159.92 110.081L180.97 147.445C182.343 149.882 182.343 152.858 180.97 155.296L159.92 192.659C158.5 195.181 155.828 196.741 152.931 196.741H111.069C108.172 196.741 105.5 195.181 104.08 192.659L83.0299 155.296L85.3596 153.987L83.0299 155.296C81.6567 152.858 81.6567 149.882 83.0299 147.445L104.08 110.081Z" fill="#E4E2DD" style="fill:#E4E2DD;fill:color(display-p3 0.8941 0.8863 0.8667);fill-opacity:1;"/>
<path fill-rule="evenodd" clip-rule="evenodd" d="M194.069 62.3377C193.104 62.3377 192.213 62.8577 191.74 63.6981L170.689 101.062C170.232 101.874 170.232 102.866 170.689 103.679L168.377 104.977L170.689 103.679L191.74 141.043C192.213 141.883 193.104 142.403 194.069 142.403H235.931C236.896 142.403 237.787 141.883 238.26 141.043L259.311 103.679C259.768 102.866 259.768 101.874 259.311 101.062L238.26 63.6981C237.787 62.8577 236.896 62.3377 235.931 62.3377H194.069ZM187.08 61.0812C188.5 58.5602 191.172 57 194.069 57H235.931C238.828 57 241.5 58.5602 242.92 61.0812L263.97 98.4451C265.343 100.882 265.343 103.858 263.97 106.296L242.92 143.659C241.5 146.181 238.828 147.741 235.931 147.741H194.069C191.172 147.741 188.5 146.181 187.08 143.659L166.03 106.296L168.36 104.987L166.03 106.296C164.657 103.858 164.657 100.882 166.03 98.4451L187.08 61.0812Z" fill="#E4E2DD" style="fill:#E4E2DD;fill:color(display-p3 0.8941 0.8863 0.8667);fill-opacity:1;"/>
<path fill-rule="evenodd" clip-rule="evenodd" d="M276.069 11.3377C275.104 11.3377 274.213 11.8577 273.74 12.6981L252.689 50.0619C252.232 50.8744 252.232 51.8664 252.689 52.6788L250.377 53.9772L252.689 52.6788L273.74 90.0426C274.213 90.883 275.104 91.403 276.069 91.403H317.931C318.896 91.403 319.787 90.883 320.26 90.0426L341.311 52.6788C341.768 51.8664 341.768 50.8744 341.311 50.0619L320.26 12.6981C319.787 11.8577 318.896 11.3377 317.931 11.3377H276.069ZM269.08 10.0812C270.5 7.56017 273.172 6 276.069 6H317.931C320.828 6 323.5 7.56017 324.92 10.0812L345.97 47.4451C347.343 49.8824 347.343 52.8584 345.97 55.2957L324.92 92.6595C323.5 95.1806 320.828 96.7407 317.931 96.7407H276.069C273.172 96.7407 270.5 95.1806 269.08 92.6595L248.03 55.2957L250.36 53.9872L248.03 55.2957C246.657 52.8584 246.657 49.8824 248.03 47.4451L269.08 10.0812Z" fill="#E4E2DD" style="fill:#E4E2DD;fill:color(display-p3 0.8941 0.8863 0.8667);fill-opacity:1;"/>
<path fill-rule="evenodd" clip-rule="evenodd" d="M276.069 108.338C275.104 108.338 274.213 108.858 273.74 109.698L252.689 147.062C252.232 147.874 252.232 148.866 252.689 149.679L250.377 150.977L252.689 149.679L273.74 187.043C274.213 187.883 275.104 188.403 276.069 188.403H317.931C318.896 188.403 319.787 187.883 320.26 187.043L341.311 149.679C341.768 148.866 341.768 147.874 341.311 147.062L320.26 109.698C319.787 108.858 318.896 108.338 317.931 108.338H276.069ZM269.08 107.081C270.5 104.56 273.172 103 276.069 103H317.931C320.828 103 323.5 104.56 324.92 107.081L345.97 144.445C347.343 146.882 347.343 149.858 345.97 152.296L324.92 189.659C323.5 192.181 320.828 193.741 317.931 193.741H276.069C273.172 193.741 270.5 192.181 269.08 189.659L248.03 152.296L250.36 150.987L248.03 152.296C246.657 149.858 246.657 146.882 248.03 144.445L269.08 107.081Z" fill="#E4E2DD" style="fill:#E4E2DD;fill:color(display-p3 0.8941 0.8863 0.8667);fill-opacity:1;"/>
<path fill-rule="evenodd" clip-rule="evenodd" d="M359.069 59.3377C358.104 59.3377 357.213 59.8577 356.74 60.6981L335.689 98.0619C335.232 98.8744 335.232 99.8664 335.689 100.679L333.377 101.977L335.689 100.679L356.74 138.043C357.213 138.883 358.104 139.403 359.069 139.403H400.931C401.896 139.403 402.787 138.883 403.26 138.043L424.311 100.679C424.768 99.8664 424.768 98.8744 424.311 98.0619L403.26 60.6981C402.787 59.8577 401.896 59.3377 400.931 59.3377H359.069ZM352.08 58.0812C353.5 55.5602 356.172 54 359.069 54H400.931C403.828 54 406.5 55.5602 407.92 58.0812L428.97 95.4451C430.343 97.8824 430.343 100.858 428.97 103.296L407.92 140.659C406.5 143.181 403.828 144.741 400.931 144.741H359.069C356.172 144.741 353.5 143.181 352.08 140.659L331.03 103.296L333.36 101.987L331.03 103.296C329.657 100.858 329.657 97.8824 331.03 95.4451L352.08 58.0812Z" fill="#E4E2DD" style="fill:#E4E2DD;fill:color(display-p3 0.8941 0.8863 0.8667);fill-opacity:1;"/>
<path fill-rule="evenodd" clip-rule="evenodd" d="M441.069 8.33769C440.104 8.33769 439.213 8.85775 438.74 9.69811L417.689 47.0619C417.232 47.8744 417.232 48.8664 417.689 49.6788L415.377 50.9772L417.689 49.6788L438.74 87.0426C439.213 87.883 440.104 88.403 441.069 88.403H482.931C483.896 88.403 484.787 87.883 485.26 87.0426L506.311 49.6788C506.768 48.8664 506.768 47.8744 506.311 47.0619L485.26 9.6981C484.787 8.85775 483.896 8.33769 482.931 8.33769H441.069ZM434.08 7.08124C435.5 4.56017 438.172 3 441.069 3H482.931C485.828 3 488.5 4.56017 489.92 7.08124L510.97 44.4451C512.343 46.8824 512.343 49.8584 510.97 52.2957L489.92 89.6595C488.5 92.1806 485.828 93.7407 482.931 93.7407H441.069C438.172 93.7407 435.5 92.1806 434.08 89.6595L413.03 52.2957L415.36 50.9872L413.03 52.2957C411.657 49.8584 411.657 46.8824 413.03 44.4451L434.08 7.08124Z" fill="#E4E2DD" style="fill:#E4E2DD;fill:color(display-p3 0.8941 0.8863 0.8667);fill-opacity:1;"/>
<path fill-rule="evenodd" clip-rule="evenodd" d="M441.069 105.338C440.104 105.338 439.213 105.858 438.74 106.698L417.689 144.062C417.232 144.874 417.232 145.866 417.689 146.679L415.377 147.977L417.689 146.679L438.74 184.043C439.213 184.883 440.104 185.403 441.069 185.403H482.931C483.896 185.403 484.787 184.883 485.26 184.043L506.311 146.679C506.768 145.866 506.768 144.874 506.311 144.062L485.26 106.698C484.787 105.858 483.896 105.338 482.931 105.338H441.069ZM434.08 104.081C435.5 101.56 438.172 100 441.069 100H482.931C485.828 100 488.5 101.56 489.92 104.081L510.97 141.445C512.343 143.882 512.343 146.858 510.97 149.296L489.92 186.659C488.5 189.181 485.828 190.741 482.931 190.741H441.069C438.172 190.741 435.5 189.181 434.08 186.659L413.03 149.296L415.36 147.987L413.03 149.296C411.657 146.858 411.657 143.882 413.03 141.445L434.08 104.081Z" fill="#E4E2DD" style="fill:#E4E2DD;fill:color(display-p3 0.8941 0.8863 0.8667);fill-opacity:1;"/>
<path fill-rule="evenodd" clip-rule="evenodd" d="M524.069 56.3377C523.104 56.3377 522.213 56.8577 521.74 57.6981L500.689 95.0619C500.232 95.8744 500.232 96.8664 500.689 97.6788L498.377 98.9772L500.689 97.6788L521.74 135.043C522.213 135.883 523.104 136.403 524.069 136.403H565.931C566.896 136.403 567.787 135.883 568.26 135.043L589.311 97.6788C589.768 96.8664 589.768 95.8744 589.311 95.0619L568.26 57.6981C567.787 56.8577 566.896 56.3377 565.931 56.3377H524.069ZM517.08 55.0812C518.5 52.5602 521.172 51 524.069 51H565.931C568.828 51 571.5 52.5602 572.92 55.0812L593.97 92.4451C595.343 94.8824 595.343 97.8584 593.97 100.296L572.92 137.659C571.5 140.181 568.828 141.741 565.931 141.741H524.069C521.172 141.741 518.5 140.181 517.08 137.659L496.03 100.296L498.36 98.9872L496.03 100.296C494.657 97.8584 494.657 94.8824 496.03 92.4451L517.08 55.0812Z" fill="#E4E2DD" style="fill:#E4E2DD;fill:color(display-p3 0.8941 0.8863 0.8667);fill-opacity:1;"/>
<path fill-rule="evenodd" clip-rule="evenodd" d="M113.069 208.338C112.104 208.338 111.213 208.858 110.74 209.698L89.6894 247.062C89.2316 247.874 89.2317 248.866 89.6894 249.679L87.3774 250.977L89.6894 249.679L110.74 287.043C111.213 287.883 112.104 288.403 113.069 288.403H154.931C155.896 288.403 156.787 287.883 157.26 287.043L178.311 249.679C178.768 248.866 178.768 247.874 178.311 247.062L157.26 209.698C156.787 208.858 155.896 208.338 154.931 208.338H113.069ZM106.08 207.081C107.5 204.56 110.172 203 113.069 203H154.931C157.828 203 160.5 204.56 161.92 207.081L182.97 244.445C184.343 246.882 184.343 249.858 182.97 252.296L161.92 289.659C160.5 292.181 157.828 293.741 154.931 293.741H113.069C110.172 293.741 107.5 292.181 106.08 289.659L85.0299 252.296L87.3596 250.987L85.0299 252.296C83.6567 249.858 83.6567 246.882 85.0299 244.445L106.08 207.081Z" fill="#E4E2DD" style="fill:#E4E2DD;fill:color(display-p3 0.8941 0.8863 0.8667);fill-opacity:1;"/>
<path fill-rule="evenodd" clip-rule="evenodd" d="M195.069 157.338C194.104 157.338 193.213 157.858 192.74 158.698L171.689 196.062C171.232 196.874 171.232 197.866 171.689 198.679L169.377 199.977L171.689 198.679L192.74 236.043C193.213 236.883 194.104 237.403 195.069 237.403H236.931C237.896 237.403 238.787 236.883 239.26 236.043L260.311 198.679C260.768 197.866 260.768 196.874 260.311 196.062L239.26 158.698C238.787 157.858 237.896 157.338 236.931 157.338H195.069ZM188.08 156.081C189.5 153.56 192.172 152 195.069 152H236.931C239.828 152 242.5 153.56 243.92 156.081L264.97 193.445C266.343 195.882 266.343 198.858 264.97 201.296L243.92 238.659C242.5 241.181 239.828 242.741 236.931 242.741H195.069C192.172 242.741 189.5 241.181 188.08 238.659L167.03 201.296L169.36 199.987L167.03 201.296C165.657 198.858 165.657 195.882 167.03 193.445L188.08 156.081Z" fill="#E4E2DD" style="fill:#E4E2DD;fill:color(display-p3 0.8941 0.8863 0.8667);fill-opacity:1;"/>
<path fill-rule="evenodd" clip-rule="evenodd" d="M195.069 254.338C194.104 254.338 193.213 254.858 192.74 255.698L171.689 293.062C171.232 293.874 171.232 294.866 171.689 295.679L169.377 296.977L171.689 295.679L192.74 333.043C193.213 333.883 194.104 334.403 195.069 334.403H236.931C237.896 334.403 238.787 333.883 239.26 333.043L260.311 295.679C260.768 294.866 260.768 293.874 260.311 293.062L239.26 255.698C238.787 254.858 237.896 254.338 236.931 254.338H195.069ZM188.08 253.081C189.5 250.56 192.172 249 195.069 249H236.931C239.828 249 242.5 250.56 243.92 253.081L264.97 290.445C266.343 292.882 266.343 295.858 264.97 298.296L243.92 335.659C242.5 338.181 239.828 339.741 236.931 339.741H195.069C192.172 339.741 189.5 338.181 188.08 335.659L167.03 298.296L169.36 296.987L167.03 298.296C165.657 295.858 165.657 292.882 167.03 290.445L188.08 253.081Z" fill="#E4E2DD" style="fill:#E4E2DD;fill:color(display-p3 0.8941 0.8863 0.8667);fill-opacity:1;"/>
<path fill-rule="evenodd" clip-rule="evenodd" d="M278.069 205.338C277.104 205.338 276.213 205.858 275.74 206.698L254.689 244.062C254.232 244.874 254.232 245.866 254.689 246.679L252.377 247.977L254.689 246.679L275.74 284.043C276.213 284.883 277.104 285.403 278.069 285.403H319.931C320.896 285.403 321.787 284.883 322.26 284.043L343.311 246.679C343.768 245.866 343.768 244.874 343.311 244.062L322.26 206.698C321.787 205.858 320.896 205.338 319.931 205.338H278.069ZM271.08 204.081C272.5 201.56 275.172 200 278.069 200H319.931C322.828 200 325.5 201.56 326.92 204.081L347.97 241.445C349.343 243.882 349.343 246.858 347.97 249.296L326.92 286.659C325.5 289.181 322.828 290.741 319.931 290.741H278.069C275.172 290.741 272.5 289.181 271.08 286.659L250.03 249.296L252.36 247.987L250.03 249.296C248.657 246.858 248.657 243.882 250.03 241.445L271.08 204.081Z" fill="#E4E2DD" style="fill:#E4E2DD;fill:color(display-p3 0.8941 0.8863 0.8667);fill-opacity:1;"/>
<path fill-rule="evenodd" clip-rule="evenodd" d="M360.069 154.338C359.104 154.338 358.213 154.858 357.74 155.698L336.689 193.062C336.232 193.874 336.232 194.866 336.689 195.679L334.377 196.977L336.689 195.679L357.74 233.043C358.213 233.883 359.104 234.403 360.069 234.403H401.931C402.896 234.403 403.787 233.883 404.26 233.043L425.311 195.679C425.768 194.866 425.768 193.874 425.311 193.062L404.26 155.698C403.787 154.858 402.896 154.338 401.931 154.338H360.069ZM353.08 153.081C354.5 150.56 357.172 149 360.069 149H401.931C404.828 149 407.5 150.56 408.92 153.081L429.97 190.445C431.343 192.882 431.343 195.858 429.97 198.296L408.92 235.659C407.5 238.181 404.828 239.741 401.931 239.741H360.069C357.172 239.741 354.5 238.181 353.08 235.659L332.03 198.296L334.36 196.987L332.03 198.296C330.657 195.858 330.657 192.882 332.03 190.445L353.08 153.081Z" fill="#E4E2DD" style="fill:#E4E2DD;fill:color(display-p3 0.8941 0.8863 0.8667);fill-opacity:1;"/>
<path fill-rule="evenodd" clip-rule="evenodd" d="M360.069 251.338C359.104 251.338 358.213 251.858 357.74 252.698L336.689 290.062C336.232 290.874 336.232 291.866 336.689 292.679L334.377 293.977L336.689 292.679L357.74 330.043C358.213 330.883 359.104 331.403 360.069 331.403H401.931C402.896 331.403 403.787 330.883 404.26 330.043L425.311 292.679C425.768 291.866 425.768 290.874 425.311 290.062L404.26 252.698C403.787 251.858 402.896 251.338 401.931 251.338H360.069ZM353.08 250.081C354.5 247.56 357.172 246 360.069 246H401.931C404.828 246 407.5 247.56 408.92 250.081L429.97 287.445C431.343 289.882 431.343 292.858 429.97 295.296L408.92 332.659C407.5 335.181 404.828 336.741 401.931 336.741H360.069C357.172 336.741 354.5 335.181 353.08 332.659L332.03 295.296L334.36 293.987L332.03 295.296C330.657 292.858 330.657 289.882 332.03 287.445L353.08 250.081Z" fill="#E4E2DD" style="fill:#E4E2DD;fill:color(display-p3 0.8941 0.8863 0.8667);fill-opacity:1;"/>
<path fill-rule="evenodd" clip-rule="evenodd" d="M443.069 202.338C442.104 202.338 441.213 202.858 440.74 203.698L419.689 241.062C419.232 241.874 419.232 242.866 419.689 243.679L417.377 244.977L419.689 243.679L440.74 281.043C441.213 281.883 442.104 282.403 443.069 282.403H484.931C485.896 282.403 486.787 281.883 487.26 281.043L508.311 243.679C508.768 242.866 508.768 241.874 508.311 241.062L487.26 203.698C486.787 202.858 485.896 202.338 484.931 202.338H443.069ZM436.08 201.081C437.5 198.56 440.172 197 443.069 197H484.931C487.828 197 490.5 198.56 491.92 201.081L512.97 238.445C514.343 240.882 514.343 243.858 512.97 246.296L491.92 283.659C490.5 286.181 487.828 287.741 484.931 287.741H443.069C440.172 287.741 437.5 286.181 436.08 283.659L415.03 246.296L417.36 244.987L415.03 246.296C413.657 243.858 413.657 240.882 415.03 238.445L436.08 201.081Z" fill="#E4E2DD" style="fill:#E4E2DD;fill:color(display-p3 0.8941 0.8863 0.8667);fill-opacity:1;"/>
<path fill-rule="evenodd" clip-rule="evenodd" d="M525.069 151.338C524.104 151.338 523.213 151.858 522.74 152.698L501.689 190.062C501.232 190.874 501.232 191.866 501.689 192.679L499.377 193.977L501.689 192.679L522.74 230.043C523.213 230.883 524.104 231.403 525.069 231.403H566.931C567.896 231.403 568.787 230.883 569.26 230.043L590.311 192.679C590.768 191.866 590.768 190.874 590.311 190.062L569.26 152.698C568.787 151.858 567.896 151.338 566.931 151.338H525.069ZM518.08 150.081C519.5 147.56 522.172 146 525.069 146H566.931C569.828 146 572.5 147.56 573.92 150.081L594.97 187.445C596.343 189.882 596.343 192.858 594.97 195.296L573.92 232.659C572.5 235.181 569.828 236.741 566.931 236.741H525.069C522.172 236.741 519.5 235.181 518.08 232.659L497.03 195.296L499.36 193.987L497.03 195.296C495.657 192.858 495.657 189.882 497.03 187.445L518.08 150.081Z" fill="#E4E2DD" style="fill:#E4E2DD;fill:color(display-p3 0.8941 0.8863 0.8667);fill-opacity:1;"/>
<path fill-rule="evenodd" clip-rule="evenodd" d="M525.069 248.338C524.104 248.338 523.213 248.858 522.74 249.698L501.689 287.062C501.232 287.874 501.232 288.866 501.689 289.679L499.377 290.977L501.689 289.679L522.74 327.043C523.213 327.883 524.104 328.403 525.069 328.403H566.931C567.896 328.403 568.787 327.883 569.26 327.043L590.311 289.679C590.768 288.866 590.768 287.874 590.311 287.062L569.26 249.698C568.787 248.858 567.896 248.338 566.931 248.338H525.069ZM518.08 247.081C519.5 244.56 522.172 243 525.069 243H566.931C569.828 243 572.5 244.56 573.92 247.081L594.97 284.445C596.343 286.882 596.343 289.858 594.97 292.296L573.92 329.659C572.5 332.181 569.828 333.741 566.931 333.741H525.069C522.172 333.741 519.5 332.181 518.08 329.659L497.03 292.296L499.36 290.987L497.03 292.296C495.657 289.858 495.657 286.882 497.03 284.445L518.08 247.081Z" fill="#E4E2DD" style="fill:#E4E2DD;fill:color(display-p3 0.8941 0.8863 0.8667);fill-opacity:1;"/>
<path fill-rule="evenodd" clip-rule="evenodd" d="M197.069 351.338C196.104 351.338 195.213 351.858 194.74 352.698L173.689 390.062C173.232 390.874 173.232 391.866 173.689 392.679L171.377 393.977L173.689 392.679L194.74 430.043C195.213 430.883 196.104 431.403 197.069 431.403H238.931C239.896 431.403 240.787 430.883 241.26 430.043L262.311 392.679C262.768 391.866 262.768 390.874 262.311 390.062L241.26 352.698C240.787 351.858 239.896 351.338 238.931 351.338H197.069ZM190.08 350.081C191.5 347.56 194.172 346 197.069 346H238.931C241.828 346 244.5 347.56 245.92 350.081L266.97 387.445C268.343 389.882 268.343 392.858 266.97 395.296L245.92 432.659C244.5 435.181 241.828 436.741 238.931 436.741H197.069C194.172 436.741 191.5 435.181 190.08 432.659L169.03 395.296L171.36 393.987L169.03 395.296C167.657 392.858 167.657 389.882 169.03 387.445L190.08 350.081Z" fill="#E4E2DD" style="fill:#E4E2DD;fill:color(display-p3 0.8941 0.8863 0.8667);fill-opacity:1;"/>
<path fill-rule="evenodd" clip-rule="evenodd" d="M279.069 300.338C278.104 300.338 277.213 300.858 276.74 301.698L255.689 339.062C255.232 339.874 255.232 340.866 255.689 341.679L253.377 342.977L255.689 341.679L276.74 379.043C277.213 379.883 278.104 380.403 279.069 380.403H320.931C321.896 380.403 322.787 379.883 323.26 379.043L344.311 341.679C344.768 340.866 344.768 339.874 344.311 339.062L323.26 301.698C322.787 300.858 321.896 300.338 320.931 300.338H279.069ZM272.08 299.081C273.5 296.56 276.172 295 279.069 295H320.931C323.828 295 326.5 296.56 327.92 299.081L348.97 336.445C350.343 338.882 350.343 341.858 348.97 344.296L327.92 381.659C326.5 384.181 323.828 385.741 320.931 385.741H279.069C276.172 385.741 273.5 384.181 272.08 381.659L251.03 344.296L253.36 342.987L251.03 344.296C249.657 341.858 249.657 338.882 251.03 336.445L272.08 299.081Z" fill="#E4E2DD" style="fill:#E4E2DD;fill:color(display-p3 0.8941 0.8863 0.8667);fill-opacity:1;"/>
<path fill-rule="evenodd" clip-rule="evenodd" d="M279.069 397.338C278.104 397.338 277.213 397.858 276.74 398.698L255.689 436.062C255.232 436.874 255.232 437.866 255.689 438.679L253.377 439.977L255.689 438.679L276.74 476.043C277.213 476.883 278.104 477.403 279.069 477.403H320.931C321.896 477.403 322.787 476.883 323.26 476.043L344.311 438.679C344.768 437.866 344.768 436.874 344.311 436.062L323.26 398.698C322.787 397.858 321.896 397.338 320.931 397.338H279.069ZM272.08 396.081C273.5 393.56 276.172 392 279.069 392H320.931C323.828 392 326.5 393.56 327.92 396.081L348.97 433.445C350.343 435.882 350.343 438.858 348.97 441.296L327.92 478.659C326.5 481.181 323.828 482.741 320.931 482.741H279.069C276.172 482.741 273.5 481.181 272.08 478.659L251.03 441.296L253.36 439.987L251.03 441.296C249.657 438.858 249.657 435.882 251.03 433.445L272.08 396.081Z" fill="#E4E2DD" style="fill:#E4E2DD;fill:color(display-p3 0.8941 0.8863 0.8667);fill-opacity:1;"/>
<path fill-rule="evenodd" clip-rule="evenodd" d="M362.069 348.338C361.104 348.338 360.213 348.858 359.74 349.698L338.689 387.062C338.232 387.874 338.232 388.866 338.689 389.679L336.377 390.977L338.689 389.679L359.74 427.043C360.213 427.883 361.104 428.403 362.069 428.403H403.931C404.896 428.403 405.787 427.883 406.26 427.043L427.311 389.679C427.768 388.866 427.768 387.874 427.311 387.062L406.26 349.698C405.787 348.858 404.896 348.338 403.931 348.338H362.069ZM355.08 347.081C356.5 344.56 359.172 343 362.069 343H403.931C406.828 343 409.5 344.56 410.92 347.081L431.97 384.445C433.343 386.882 433.343 389.858 431.97 392.296L410.92 429.659C409.5 432.181 406.828 433.741 403.931 433.741H362.069C359.172 433.741 356.5 432.181 355.08 429.659L334.03 392.296L336.36 390.987L334.03 392.296C332.657 389.858 332.657 386.882 334.03 384.445L355.08 347.081Z" fill="#E4E2DD" style="fill:#E4E2DD;fill:color(display-p3 0.8941 0.8863 0.8667);fill-opacity:1;"/>
<path fill-rule="evenodd" clip-rule="evenodd" d="M444.069 297.338C443.104 297.338 442.213 297.858 441.74 298.698L420.689 336.062C420.232 336.874 420.232 337.866 420.689 338.679L418.377 339.977L420.689 338.679L441.74 376.043C442.213 376.883 443.104 377.403 444.069 377.403H485.931C486.896 377.403 487.787 376.883 488.26 376.043L509.311 338.679C509.768 337.866 509.768 336.874 509.311 336.062L488.26 298.698C487.787 297.858 486.896 297.338 485.931 297.338H444.069ZM437.08 296.081C438.5 293.56 441.172 292 444.069 292H485.931C488.828 292 491.5 293.56 492.92 296.081L513.97 333.445C515.343 335.882 515.343 338.858 513.97 341.296L492.92 378.659C491.5 381.181 488.828 382.741 485.931 382.741H444.069C441.172 382.741 438.5 381.181 437.08 378.659L416.03 341.296L418.36 339.987L416.03 341.296C414.657 338.858 414.657 335.882 416.03 333.445L437.08 296.081Z" fill="#E4E2DD" style="fill:#E4E2DD;fill:color(display-p3 0.8941 0.8863 0.8667);fill-opacity:1;"/>
<path fill-rule="evenodd" clip-rule="evenodd" d="M444.069 394.338C443.104 394.338 442.213 394.858 441.74 395.698L420.689 433.062C420.232 433.874 420.232 434.866 420.689 435.679L418.377 436.977L420.689 435.679L441.74 473.043C442.213 473.883 443.104 474.403 444.069 474.403H485.931C486.896 474.403 487.787 473.883 488.26 473.043L509.311 435.679C509.768 434.866 509.768 433.874 509.311 433.062L488.26 395.698C487.787 394.858 486.896 394.338 485.931 394.338H444.069ZM437.08 393.081C438.5 390.56 441.172 389 444.069 389H485.931C488.828 389 491.5 390.56 492.92 393.081L513.97 430.445C515.343 432.882 515.343 435.858 513.97 438.296L492.92 475.659C491.5 478.181 488.828 479.741 485.931 479.741H444.069C441.172 479.741 438.5 478.181 437.08 475.659L416.03 438.296L418.36 436.987L416.03 438.296C414.657 435.858 414.657 432.882 416.03 430.445L437.08 393.081Z" fill="#E4E2DD" style="fill:#E4E2DD;fill:color(display-p3 0.8941 0.8863 0.8667);fill-opacity:1;"/>
<path fill-rule="evenodd" clip-rule="evenodd" d="M527.069 345.338C526.104 345.338 525.213 345.858 524.74 346.698L503.689 384.062C503.232 384.874 503.232 385.866 503.689 386.679L501.377 387.977L503.689 386.679L524.74 424.043C525.213 424.883 526.104 425.403 527.069 425.403H568.931C569.896 425.403 570.787 424.883 571.26 424.043L592.311 386.679C592.768 385.866 592.768 384.874 592.311 384.062L571.26 346.698C570.787 345.858 569.896 345.338 568.931 345.338H527.069ZM520.08 344.081C521.5 341.56 524.172 340 527.069 340H568.931C571.828 340 574.5 341.56 575.92 344.081L596.97 381.445C598.343 383.882 598.343 386.858 596.97 389.296L575.92 426.659C574.5 429.181 571.828 430.741 568.931 430.741H527.069C524.172 430.741 521.5 429.181 520.08 426.659L499.03 389.296L501.36 387.987L499.03 389.296C497.657 386.858 497.657 383.882 499.03 381.445L520.08 344.081Z" fill="#E4E2DD" style="fill:#E4E2DD;fill:color(display-p3 0.8941 0.8863 0.8667);fill-opacity:1;"/>
<path fill-rule="evenodd" clip-rule="evenodd" d="M281.069 494.338C280.104 494.338 279.213 494.858 278.74 495.698L257.689 533.062C257.232 533.874 257.232 534.866 257.689 535.679L255.377 536.977L257.689 535.679L278.74 573.043C279.213 573.883 280.104 574.403 281.069 574.403H322.931C323.896 574.403 324.787 573.883 325.26 573.043L346.311 535.679C346.768 534.866 346.768 533.874 346.311 533.062L325.26 495.698C324.787 494.858 323.896 494.338 322.931 494.338H281.069ZM274.08 493.081C275.5 490.56 278.172 489 281.069 489H322.931C325.828 489 328.5 490.56 329.92 493.081L350.97 530.445C352.343 532.882 352.343 535.858 350.97 538.296L329.92 575.659C328.5 578.181 325.828 579.741 322.931 579.741H281.069C278.172 579.741 275.5 578.181 274.08 575.659L253.03 538.296L255.36 536.987L253.03 538.296C251.657 535.858 251.657 532.882 253.03 530.445L274.08 493.081Z" fill="#E4E2DD" style="fill:#E4E2DD;fill:color(display-p3 0.8941 0.8863 0.8667);fill-opacity:1;"/>
<path fill-rule="evenodd" clip-rule="evenodd" d="M363.069 443.338C362.104 443.338 361.213 443.858 360.74 444.698L339.689 482.062C339.232 482.874 339.232 483.866 339.689 484.679L337.377 485.977L339.689 484.679L360.74 522.043C361.213 522.883 362.104 523.403 363.069 523.403H404.931C405.896 523.403 406.787 522.883 407.26 522.043L428.311 484.679C428.768 483.866 428.768 482.874 428.311 482.062L407.26 444.698C406.787 443.858 405.896 443.338 404.931 443.338H363.069ZM356.08 442.081C357.5 439.56 360.172 438 363.069 438H404.931C407.828 438 410.5 439.56 411.92 442.081L432.97 479.445C434.343 481.882 434.343 484.858 432.97 487.296L411.92 524.659C410.5 527.181 407.828 528.741 404.931 528.741H363.069C360.172 528.741 357.5 527.181 356.08 524.659L335.03 487.296L337.36 485.987L335.03 487.296C333.657 484.858 333.657 481.882 335.03 479.445L356.08 442.081Z" fill="#E4E2DD" style="fill:#E4E2DD;fill:color(display-p3 0.8941 0.8863 0.8667);fill-opacity:1;"/>
<path fill-rule="evenodd" clip-rule="evenodd" d="M363.069 540.338C362.104 540.338 361.213 540.858 360.74 541.698L339.689 579.062C339.232 579.874 339.232 580.866 339.689 581.679L337.377 582.977L339.689 581.679L360.74 619.043C361.213 619.883 362.104 620.403 363.069 620.403H404.931C405.896 620.403 406.787 619.883 407.26 619.043L428.311 581.679C428.768 580.866 428.768 579.874 428.311 579.062L407.26 541.698C406.787 540.858 405.896 540.338 404.931 540.338H363.069ZM356.08 539.081C357.5 536.56 360.172 535 363.069 535H404.931C407.828 535 410.5 536.56 411.92 539.081L432.97 576.445C434.343 578.882 434.343 581.858 432.97 584.296L411.92 621.659C410.5 624.181 407.828 625.741 404.931 625.741H363.069C360.172 625.741 357.5 624.181 356.08 621.659L335.03 584.296L337.36 582.987L335.03 584.296C333.657 581.858 333.657 578.882 335.03 576.445L356.08 539.081Z" fill="#E4E2DD" style="fill:#E4E2DD;fill:color(display-p3 0.8941 0.8863 0.8667);fill-opacity:1;"/>
<path fill-rule="evenodd" clip-rule="evenodd" d="M446.069 491.338C445.104 491.338 444.213 491.858 443.74 492.698L422.689 530.062C422.232 530.874 422.232 531.866 422.689 532.679L420.377 533.977L422.689 532.679L443.74 570.043C444.213 570.883 445.104 571.403 446.069 571.403H487.931C488.896 571.403 489.787 570.883 490.26 570.043L511.311 532.679C511.768 531.866 511.768 530.874 511.311 530.062L490.26 492.698C489.787 491.858 488.896 491.338 487.931 491.338H446.069ZM439.08 490.081C440.5 487.56 443.172 486 446.069 486H487.931C490.828 486 493.5 487.56 494.92 490.081L515.97 527.445C517.343 529.882 517.343 532.858 515.97 535.296L494.92 572.659C493.5 575.181 490.828 576.741 487.931 576.741H446.069C443.172 576.741 440.5 575.181 439.08 572.659L418.03 535.296L420.36 533.987L418.03 535.296C416.657 532.858 416.657 529.882 418.03 527.445L439.08 490.081Z" fill="#E4E2DD" style="fill:#E4E2DD;fill:color(display-p3 0.8941 0.8863 0.8667);fill-opacity:1;"/>
<path fill-rule="evenodd" clip-rule="evenodd" d="M528.069 440.338C527.104 440.338 526.213 440.858 525.74 441.698L504.689 479.062C504.232 479.874 504.232 480.866 504.689 481.679L502.377 482.977L504.689 481.679L525.74 519.043C526.213 519.883 527.104 520.403 528.069 520.403H569.931C570.896 520.403 571.787 519.883 572.26 519.043L593.311 481.679C593.768 480.866 593.768 479.874 593.311 479.062L572.26 441.698C571.787 440.858 570.896 440.338 569.931 440.338H528.069ZM521.08 439.081C522.5 436.56 525.172 435 528.069 435H569.931C572.828 435 575.5 436.56 576.92 439.081L597.97 476.445C599.343 478.882 599.343 481.858 597.97 484.296L576.92 521.659C575.5 524.181 572.828 525.741 569.931 525.741H528.069C525.172 525.741 522.5 524.181 521.08 521.659L500.03 484.296L502.36 482.987L500.03 484.296C498.657 481.858 498.657 478.882 500.03 476.445L521.08 439.081Z" fill="#E4E2DD" style="fill:#E4E2DD;fill:color(display-p3 0.8941 0.8863 0.8667);fill-opacity:1;"/>
<path fill-rule="evenodd" clip-rule="evenodd" d="M528.069 537.338C527.104 537.338 526.213 537.858 525.74 538.698L504.689 576.062C504.232 576.874 504.232 577.866 504.689 578.679L502.377 579.977L504.689 578.679L525.74 616.043C526.213 616.883 527.104 617.403 528.069 617.403H569.931C570.896 617.403 571.787 616.883 572.26 616.043L593.311 578.679C593.768 577.866 593.768 576.874 593.311 576.062L572.26 538.698C571.787 537.858 570.896 537.338 569.931 537.338H528.069ZM521.08 536.081C522.5 533.56 525.172 532 528.069 532H569.931C572.828 532 575.5 533.56 576.92 536.081L597.97 573.445C599.343 575.882 599.343 578.858 597.97 581.296L576.92 618.659C575.5 621.181 572.828 622.741 569.931 622.741H528.069C525.172 622.741 522.5 621.181 521.08 618.659L500.03 581.296L502.36 579.987L500.03 581.296C498.657 578.858 498.657 575.882 500.03 573.445L521.08 536.081Z" fill="#E4E2DD" style="fill:#E4E2DD;fill:color(display-p3 0.8941 0.8863 0.8667);fill-opacity:1;"/>
<g filter="url(#filter0_d_53_761)">
<path d="M376.303 294.932C375.98 294.493 375.533 294.235 375.061 294.214C374.588 294.192 374.128 294.41 373.781 294.818C371.665 297.185 369.968 300.093 368.799 303.352C367.631 306.611 367.018 310.146 367 313.727C367 314.33 367.188 314.908 367.524 315.334C367.86 315.761 368.315 316 368.789 316C369.264 316 369.719 315.761 370.054 315.334C370.39 314.908 370.578 314.33 370.578 313.727C370.59 310.769 371.1 307.848 372.071 305.159C373.043 302.471 374.456 300.076 376.214 298.136C376.559 297.726 376.763 297.158 376.779 296.558C376.796 295.957 376.625 295.372 376.303 294.932ZM394.499 305.477C393.832 303.028 392.866 300.727 391.636 298.659C389.795 295.63 387.548 293.037 384.998 291C389.006 287.75 395.626 280.545 395.626 268.273C395.626 267.67 395.437 267.092 395.102 266.666C394.766 266.239 394.311 266 393.837 266C393.362 266 392.907 266.239 392.572 266.666C392.236 267.092 392.048 267.67 392.048 268.273C392.048 280.545 383.836 286.841 381.313 288.477C379.576 287.301 377.96 285.859 376.5 284.182H381.313C381.787 284.182 382.242 283.942 382.578 283.516C382.913 283.09 383.102 282.512 383.102 281.909C383.102 281.306 382.913 280.728 382.578 280.302C382.242 279.876 381.787 279.636 381.313 279.636H373.351C372.615 278.217 372.014 276.691 371.562 275.091H386.68C387.155 275.091 387.61 274.851 387.945 274.425C388.281 273.999 388.469 273.421 388.469 272.818C388.469 272.215 388.281 271.637 387.945 271.211C387.61 270.785 387.155 270.545 386.68 270.545H370.686C370.613 269.791 370.577 269.032 370.578 268.273C370.578 267.67 370.39 267.092 370.054 266.666C369.719 266.239 369.264 266 368.789 266C368.315 266 367.86 266.239 367.524 266.666C367.188 267.092 367 267.67 367 268.273C367 285.477 380.06 292.795 380.615 293.091C382.628 294.319 384.49 295.912 386.143 297.818H381.313C380.838 297.818 380.383 298.058 380.048 298.484C379.712 298.91 379.524 299.488 379.524 300.091C379.524 300.694 379.712 301.272 380.048 301.698C380.383 302.124 380.838 302.364 381.313 302.364H389.239C389.98 303.779 390.581 305.306 391.028 306.909H375.946C375.471 306.909 375.016 307.149 374.68 307.575C374.345 308.001 374.156 308.579 374.156 309.182C374.156 309.785 374.345 310.363 374.68 310.789C375.016 311.215 375.471 311.455 375.946 311.455H391.94C392.012 312.209 392.048 312.968 392.048 313.727C392.048 314.33 392.236 314.908 392.572 315.334C392.907 315.761 393.362 316 393.837 316C394.311 316 394.766 315.761 395.102 315.334C395.437 314.908 395.626 314.33 395.626 313.727C395.632 312.055 395.5 310.387 395.232 308.75C395.058 307.636 394.812 306.541 394.499 305.477Z" fill="#E4E2DD" style="fill:#E4E2DD;fill:color(display-p3 0.8941 0.8863 0.8667);fill-opacity:1;"/>
</g>
<path d="M294.303 440.932C293.98 440.493 293.533 440.235 293.061 440.214C292.588 440.192 292.128 440.41 291.781 440.818C289.665 443.185 287.968 446.093 286.799 449.352C285.631 452.611 285.018 456.146 285 459.727C285 460.33 285.188 460.908 285.524 461.334C285.86 461.761 286.315 462 286.789 462C287.264 462 287.719 461.761 288.054 461.334C288.39 460.908 288.578 460.33 288.578 459.727C288.59 456.769 289.1 453.848 290.071 451.159C291.043 448.471 292.456 446.076 294.214 444.136C294.559 443.726 294.763 443.158 294.779 442.558C294.796 441.957 294.625 441.372 294.303 440.932ZM312.499 451.477C311.832 449.028 310.866 446.727 309.636 444.659C307.795 441.63 305.548 439.037 302.998 437C307.006 433.75 313.626 426.545 313.626 414.273C313.626 413.67 313.437 413.092 313.102 412.666C312.766 412.239 312.311 412 311.837 412C311.362 412 310.907 412.239 310.572 412.666C310.236 413.092 310.048 413.67 310.048 414.273C310.048 426.545 301.836 432.841 299.313 434.477C297.576 433.301 295.96 431.859 294.5 430.182H299.313C299.787 430.182 300.242 429.942 300.578 429.516C300.913 429.09 301.102 428.512 301.102 427.909C301.102 427.306 300.913 426.728 300.578 426.302C300.242 425.876 299.787 425.636 299.313 425.636H291.351C290.615 424.217 290.014 422.691 289.562 421.091H304.68C305.155 421.091 305.61 420.851 305.945 420.425C306.281 419.999 306.469 419.421 306.469 418.818C306.469 418.215 306.281 417.637 305.945 417.211C305.61 416.785 305.155 416.545 304.68 416.545H288.686C288.613 415.791 288.577 415.032 288.578 414.273C288.578 413.67 288.39 413.092 288.054 412.666C287.719 412.239 287.264 412 286.789 412C286.315 412 285.86 412.239 285.524 412.666C285.188 413.092 285 413.67 285 414.273C285 431.477 298.06 438.795 298.615 439.091C300.628 440.319 302.49 441.912 304.143 443.818H299.313C298.838 443.818 298.383 444.058 298.048 444.484C297.712 444.91 297.524 445.488 297.524 446.091C297.524 446.694 297.712 447.272 298.048 447.698C298.383 448.124 298.838 448.364 299.313 448.364H307.239C307.98 449.779 308.581 451.306 309.028 452.909H293.946C293.471 452.909 293.016 453.149 292.68 453.575C292.345 454.001 292.156 454.579 292.156 455.182C292.156 455.785 292.345 456.363 292.68 456.789C293.016 457.215 293.471 457.455 293.946 457.455H309.94C310.012 458.209 310.048 458.968 310.048 459.727C310.048 460.33 310.236 460.908 310.572 461.334C310.907 461.761 311.362 462 311.837 462C312.311 462 312.766 461.761 313.102 461.334C313.437 460.908 313.626 460.33 313.626 459.727C313.632 458.055 313.5 456.387 313.232 454.75C313.058 453.636 312.812 452.541 312.499 451.477Z" fill="#66CDAA" style="fill:#66CDAA;fill:color(display-p3 0.4000 0.8039 0.6667);fill-opacity:1;"/>
<path d="M152.569 165.725L139.794 143.825V132H142.294C142.957 132 143.593 131.737 144.062 131.268C144.531 130.799 144.794 130.163 144.794 129.5C144.794 128.837 144.531 128.201 144.062 127.732C143.593 127.263 142.957 127 142.294 127H122.294C121.631 127 120.995 127.263 120.527 127.732C120.058 128.201 119.794 128.837 119.794 129.5C119.794 130.163 120.058 130.799 120.527 131.268C120.995 131.737 121.631 132 122.294 132H124.794V143.825L112.019 165.725C111.356 166.864 111.004 168.158 111 169.477C110.996 170.795 111.34 172.092 111.996 173.235C112.653 174.378 113.599 175.328 114.74 175.989C115.881 176.65 117.176 176.999 118.494 177H145.994C147.313 176.999 148.608 176.65 149.749 175.989C150.889 175.328 151.836 174.378 152.492 173.235C153.149 172.092 153.493 170.795 153.489 169.477C153.485 168.158 153.133 166.864 152.469 165.725H152.569ZM129.444 145.725C129.665 145.354 129.785 144.932 129.794 144.5V132H134.794V144.5C134.799 144.94 134.92 145.371 135.144 145.75L137.294 149.5H127.294L129.444 145.725ZM148.244 170.725C148.026 171.103 147.713 171.417 147.336 171.636C146.959 171.856 146.531 171.972 146.094 171.975H118.594C118.158 171.972 117.73 171.856 117.353 171.636C116.976 171.417 116.662 171.103 116.444 170.725C116.225 170.345 116.109 169.914 116.109 169.475C116.109 169.036 116.225 168.605 116.444 168.225L124.369 154.5H140.244L148.244 168.25C148.464 168.63 148.579 169.061 148.579 169.5C148.579 169.939 148.464 170.37 148.244 170.75V170.725ZM127.294 159.5C126.8 159.5 126.317 159.647 125.905 159.921C125.494 160.196 125.174 160.586 124.985 161.043C124.795 161.5 124.746 162.003 124.842 162.488C124.939 162.973 125.177 163.418 125.527 163.768C125.876 164.117 126.322 164.355 126.807 164.452C127.292 164.548 127.794 164.499 128.251 164.31C128.708 164.12 129.098 163.8 129.373 163.389C129.648 162.978 129.794 162.494 129.794 162C129.794 161.337 129.531 160.701 129.062 160.232C128.593 159.763 127.957 159.5 127.294 159.5ZM137.294 162C136.8 162 136.317 162.147 135.905 162.421C135.494 162.696 135.174 163.086 134.985 163.543C134.795 164 134.746 164.503 134.842 164.988C134.939 165.473 135.177 165.918 135.527 166.268C135.876 166.617 136.322 166.855 136.807 166.952C137.292 167.048 137.794 166.999 138.251 166.81C138.708 166.62 139.098 166.3 139.373 165.889C139.648 165.478 139.794 164.994 139.794 164.5C139.794 163.837 139.531 163.201 139.062 162.732C138.593 162.263 137.957 162 137.294 162Z" fill="#E4E2DD" style="fill:#E4E2DD;fill:color(display-p3 0.8941 0.8863 0.8667);fill-opacity:1;"/>
<path d="M478.417 160.689H467.617C467.758 160.289 467.858 159.877 467.915 159.457C470.999 158.216 473.644 156.086 475.514 153.338C477.384 150.589 478.395 147.346 478.417 144.022C478.423 139.831 476.839 135.795 473.985 132.726L475.312 131.397C475.541 131.169 475.713 130.891 475.815 130.584L477.29 126.164C477.412 125.796 477.43 125.402 477.342 125.026C477.253 124.649 477.061 124.304 476.787 124.03L472.367 119.612C472.093 119.337 471.749 119.145 471.372 119.056C470.995 118.967 470.601 118.985 470.233 119.107L465.817 120.58C465.51 120.683 465.231 120.855 465.002 121.084L451.746 134.341C451.355 134.731 451.136 135.261 451.136 135.814C451.136 136.366 451.355 136.896 451.746 137.287L448.796 140.234C448.602 140.428 448.448 140.658 448.344 140.911C448.239 141.163 448.185 141.435 448.185 141.708C448.185 141.982 448.239 142.253 448.344 142.506C448.448 142.759 448.602 142.989 448.796 143.182L453.217 147.599C453.607 147.99 454.137 148.209 454.69 148.209C455.242 148.209 455.772 147.99 456.162 147.599L459.108 144.655L459.112 144.659C459.503 145.05 460.033 145.269 460.585 145.269C461.138 145.269 461.668 145.05 462.058 144.659L471.037 135.676C473.109 137.962 474.254 140.937 474.25 144.022C474.237 146.394 473.555 148.715 472.281 150.716C471.008 152.718 469.195 154.319 467.052 155.337C466.492 154.415 465.702 153.656 464.76 153.133C463.817 152.611 462.755 152.343 461.677 152.356C460.599 152.369 459.544 152.663 458.614 153.209C457.685 153.755 456.914 154.533 456.377 155.468C455.566 155.155 454.785 154.769 454.044 154.314C454.463 154.185 454.831 153.925 455.093 153.573C455.355 153.221 455.498 152.794 455.5 152.355C455.5 151.803 455.281 151.273 454.89 150.882C454.499 150.491 453.969 150.272 453.417 150.272H445.083C444.531 150.272 444.001 150.491 443.61 150.882C443.219 151.273 443 151.803 443 152.355C443 152.908 443.219 153.438 443.61 153.828C444.001 154.219 444.531 154.439 445.083 154.439H447.856C449.953 156.792 452.619 158.566 455.6 159.591C455.66 159.965 455.755 160.332 455.883 160.689H445.083C444.531 160.689 444.001 160.908 443.61 161.299C443.219 161.689 443 162.219 443 162.772C443 163.324 443.219 163.854 443.61 164.245C444.001 164.636 444.531 164.855 445.083 164.855H478.417C478.969 164.855 479.499 164.636 479.89 164.245C480.281 163.854 480.5 163.324 480.5 162.772C480.5 162.219 480.281 161.689 479.89 161.299C479.499 160.908 478.969 160.689 478.417 160.689ZM454.69 143.182L453.215 141.709L454.69 140.234L456.162 141.709L454.69 143.182ZM472.019 128.799L460.583 140.241L456.167 135.814L467.602 124.378L470.333 123.468L472.931 126.066L472.019 128.799ZM461.75 160.689C461.338 160.689 460.935 160.566 460.593 160.337C460.25 160.109 459.983 159.783 459.825 159.403C459.668 159.022 459.626 158.603 459.707 158.199C459.787 157.795 459.986 157.423 460.277 157.132C460.568 156.841 460.939 156.642 461.344 156.562C461.748 156.482 462.167 156.523 462.547 156.681C462.928 156.838 463.253 157.105 463.482 157.448C463.711 157.79 463.833 158.193 463.833 158.605C463.833 159.158 463.613 159.687 463.223 160.078C462.832 160.468 462.302 160.688 461.75 160.689Z" fill="#66CDAA" style="fill:#66CDAA;fill:color(display-p3 0.4000 0.8039 0.6667);fill-opacity:1;"/>
<path d="M321.729 158.19L316.522 152.857C315.402 151.792 313.99 151.087 312.465 150.831C310.941 150.576 309.376 150.782 307.97 151.423L305.706 149.159C308.374 145.594 309.592 141.151 309.116 136.725C308.639 132.298 306.504 128.216 303.139 125.3C299.774 122.385 295.429 120.852 290.979 121.011C286.53 121.17 282.306 123.009 279.157 126.157C276.009 129.306 274.17 133.53 274.011 137.979C273.852 142.429 275.385 146.774 278.3 150.139C281.216 153.504 285.298 155.639 289.725 156.116C294.151 156.592 298.594 155.374 302.159 152.706L304.398 154.945C303.681 156.352 303.424 157.95 303.663 159.511C303.903 161.072 304.626 162.52 305.731 163.648L311.064 168.981C312.479 170.394 314.397 171.188 316.397 171.188C318.396 171.188 320.315 170.394 321.729 168.981C322.448 168.278 323.019 167.439 323.409 166.512C323.799 165.586 324 164.591 324 163.585C324 162.58 323.799 161.585 323.409 160.658C323.019 159.732 322.448 158.892 321.729 158.19ZM300.398 147.524C298.638 149.28 296.397 150.474 293.958 150.957C291.519 151.44 288.992 151.189 286.695 150.236C284.399 149.283 282.437 147.671 281.056 145.603C279.675 143.536 278.938 141.105 278.938 138.619C278.938 136.133 279.675 133.702 281.056 131.635C282.437 129.567 284.399 127.955 286.695 127.002C288.992 126.049 291.519 125.798 293.958 126.281C296.397 126.764 298.638 127.959 300.398 129.714C301.569 130.883 302.499 132.271 303.133 133.799C303.767 135.327 304.093 136.965 304.093 138.619C304.093 140.274 303.767 141.912 303.133 143.44C302.499 144.968 301.569 146.356 300.398 147.524ZM318.183 165.308C317.949 165.544 317.671 165.731 317.364 165.859C317.058 165.987 316.729 166.052 316.397 166.052C316.065 166.052 315.736 165.987 315.429 165.859C315.123 165.731 314.844 165.544 314.611 165.308L309.278 159.976C309.042 159.742 308.855 159.464 308.727 159.157C308.6 158.85 308.534 158.522 308.534 158.19C308.534 157.858 308.6 157.529 308.727 157.222C308.855 156.916 309.042 156.637 309.278 156.404C309.512 156.168 309.79 155.981 310.096 155.853C310.403 155.725 310.732 155.66 311.064 155.66C311.396 155.66 311.725 155.725 312.031 155.853C312.338 155.981 312.616 156.168 312.85 156.404L318.183 161.736C318.418 161.97 318.606 162.248 318.733 162.555C318.861 162.862 318.927 163.19 318.927 163.522C318.927 163.854 318.861 164.183 318.733 164.49C318.606 164.796 318.418 165.075 318.183 165.308Z" fill="#FF69B4" style="fill:#FF69B4;fill:color(display-p3 1.0000 0.4118 0.7059);fill-opacity:1;"/>
<path d="M227.748 270.139C225.658 268.42 223.21 267.189 220.584 266.537C217.958 265.884 215.219 265.826 212.567 266.367C209.036 267.08 205.797 268.826 203.26 271.383C200.723 273.94 199.003 277.193 198.318 280.729C197.818 283.381 197.909 286.11 198.584 288.722C199.26 291.335 200.504 293.766 202.227 295.842C203.826 297.647 204.743 299.954 204.818 302.364V309.182C204.818 310.99 205.536 312.725 206.815 314.003C208.093 315.282 209.827 316 211.635 316H220.726C222.534 316 224.268 315.282 225.547 314.003C226.825 312.725 227.544 310.99 227.544 309.182V302.796C227.62 300.135 228.597 297.579 230.316 295.547C233.328 291.821 234.747 287.058 234.266 282.292C233.785 277.526 231.443 273.142 227.748 270.094V270.139ZM222.998 309.182C222.998 309.785 222.759 310.363 222.333 310.789C221.907 311.215 221.329 311.455 220.726 311.455H211.635C211.033 311.455 210.455 311.215 210.028 310.789C209.602 310.363 209.363 309.785 209.363 309.182V306.91H222.998V309.182ZM226.794 292.729C224.509 295.439 223.175 298.824 222.998 302.364H218.453V295.547C218.453 294.944 218.214 294.366 217.788 293.94C217.361 293.513 216.783 293.274 216.181 293.274C215.578 293.274 215 293.513 214.574 293.94C214.147 294.366 213.908 294.944 213.908 295.547V302.364H209.363C209.303 298.883 208.015 295.535 205.727 292.91C204.217 291.101 203.202 288.932 202.78 286.614C202.358 284.296 202.544 281.908 203.32 279.683C204.096 277.458 205.435 275.472 207.207 273.919C208.979 272.366 211.123 271.299 213.431 270.821C215.414 270.413 217.463 270.451 219.429 270.933C221.395 271.416 223.229 272.33 224.798 273.609C226.367 274.889 227.632 276.502 228.5 278.331C229.368 280.16 229.817 282.159 229.816 284.184C229.833 287.297 228.764 290.318 226.794 292.729Z" fill="#5870F6" style="fill:#5870F6;fill:color(display-p3 0.3451 0.4392 0.9647);fill-opacity:1;"/>
<path d="M489.626 433.42C489.633 431.66 489.175 429.93 488.298 428.405C487.422 426.88 486.157 425.613 484.634 424.733C484.671 424.302 484.671 423.867 484.634 423.436C484.634 421.45 483.845 419.545 482.441 418.141C481.036 416.736 479.132 415.947 477.146 415.947H476.696C476.281 414.795 475.589 413.762 474.681 412.94C473.773 412.117 472.678 411.53 471.49 411.229C470.302 410.928 469.059 410.924 467.869 411.215C466.679 411.507 465.579 412.086 464.666 412.902C463.752 412.086 462.652 411.507 461.462 411.215C460.272 410.924 459.029 410.928 457.841 411.229C456.654 411.53 455.558 412.117 454.65 412.94C453.742 413.762 453.05 414.795 452.635 415.947H452.185C450.199 415.947 448.295 416.736 446.89 418.141C445.486 419.545 444.697 421.45 444.697 423.436C444.66 423.867 444.66 424.302 444.697 424.733C443.281 425.534 442.081 426.669 441.203 428.039C440.326 429.409 439.796 430.973 439.661 432.595C439.525 434.216 439.788 435.847 440.427 437.343C441.065 438.84 442.06 440.158 443.324 441.182C442.506 442.708 442.099 444.42 442.143 446.151C442.186 447.882 442.679 449.571 443.573 451.054C444.466 452.537 445.73 453.762 447.24 454.608C448.75 455.455 450.454 455.895 452.185 455.884H452.635C453.05 457.036 453.742 458.069 454.65 458.892C455.558 459.715 456.654 460.302 457.841 460.603C459.029 460.903 460.272 460.908 461.462 460.616C462.652 460.324 463.752 459.745 464.666 458.929C465.579 459.745 466.679 460.324 467.869 460.616C469.059 460.908 470.302 460.903 471.49 460.603C472.678 460.302 473.773 459.715 474.681 458.892C475.589 458.069 476.281 457.036 476.696 455.884H477.146C478.866 455.873 480.555 455.418 482.048 454.562C483.54 453.706 484.787 452.48 485.666 451C486.545 449.521 487.026 447.84 487.064 446.12C487.102 444.4 486.695 442.699 485.882 441.182C487.046 440.25 487.987 439.069 488.635 437.726C489.283 436.382 489.621 434.911 489.626 433.42ZM462.169 427.304C461.626 426.993 461.058 426.726 460.472 426.506C459.843 426.294 459.156 426.34 458.562 426.635C457.967 426.93 457.514 427.449 457.302 428.078C457.09 428.707 457.137 429.394 457.432 429.989C457.727 430.583 458.246 431.036 458.875 431.248C459.836 431.595 460.667 432.229 461.256 433.064C461.845 433.899 462.164 434.894 462.169 435.916V439.785C461.626 439.474 461.058 439.207 460.472 438.986C459.843 438.774 459.156 438.821 458.562 439.116C457.967 439.41 457.514 439.929 457.302 440.558C457.09 441.187 457.137 441.875 457.432 442.469C457.727 443.063 458.246 443.516 458.875 443.728C459.836 444.076 460.667 444.709 461.256 445.544C461.845 446.379 462.164 447.374 462.169 448.396V453.388C462.169 454.05 461.907 454.685 461.438 455.153C460.97 455.621 460.335 455.884 459.673 455.884C459.191 455.881 458.719 455.738 458.316 455.472C457.913 455.206 457.595 454.829 457.402 454.386C457.821 454.141 458.221 453.866 458.6 453.563C458.853 453.353 459.061 453.095 459.214 452.805C459.367 452.515 459.461 452.197 459.491 451.87C459.521 451.543 459.487 451.214 459.39 450.9C459.292 450.587 459.134 450.296 458.925 450.043C458.715 449.791 458.457 449.582 458.167 449.429C457.877 449.276 457.559 449.182 457.232 449.152C456.905 449.122 456.576 449.157 456.262 449.254C455.949 449.351 455.658 449.509 455.405 449.719C454.504 450.478 453.363 450.893 452.185 450.892C450.861 450.892 449.592 450.366 448.655 449.43C447.719 448.494 447.193 447.224 447.193 445.9C447.205 444.96 447.482 444.043 447.992 443.254C448.552 443.355 449.12 443.405 449.689 443.404C450.351 443.404 450.986 443.141 451.454 442.673C451.922 442.205 452.185 441.57 452.185 440.908C452.185 440.246 451.922 439.611 451.454 439.143C450.986 438.675 450.351 438.412 449.689 438.412C449.1 438.415 448.515 438.305 447.967 438.087C447.069 437.764 446.283 437.189 445.702 436.432C445.121 435.676 444.768 434.768 444.687 433.817C444.605 432.866 444.798 431.912 445.242 431.068C445.687 430.223 446.364 429.523 447.193 429.052C447.548 429.378 447.932 429.67 448.341 429.925C448.917 430.256 449.601 430.345 450.243 430.172C450.884 429.998 451.43 429.578 451.761 429.002C452.092 428.426 452.181 427.742 452.007 427.101C451.834 426.459 451.413 425.913 450.837 425.582C450.486 425.388 450.193 425.104 449.989 424.758C449.758 424.358 449.654 423.897 449.689 423.436C449.689 422.774 449.952 422.139 450.42 421.671C450.888 421.202 451.523 420.939 452.185 420.939C452.359 420.915 452.536 420.915 452.71 420.939C452.842 421.341 453 421.732 453.184 422.113C453.347 422.399 453.565 422.65 453.825 422.851C454.086 423.052 454.383 423.2 454.701 423.286C455.019 423.372 455.351 423.394 455.677 423.351C456.004 423.308 456.318 423.201 456.603 423.036C457.157 422.703 457.56 422.169 457.727 421.545C457.895 420.921 457.814 420.257 457.502 419.691C457.292 419.309 457.181 418.88 457.177 418.443C457.177 417.781 457.44 417.147 457.908 416.678C458.377 416.21 459.011 415.947 459.673 415.947C460.335 415.947 460.97 416.21 461.438 416.678C461.907 417.147 462.169 417.781 462.169 418.443V427.304ZM481.364 438.087C480.816 438.305 480.231 438.415 479.642 438.412C478.98 438.412 478.345 438.675 477.877 439.143C477.409 439.611 477.146 440.246 477.146 440.908C477.146 441.57 477.409 442.205 477.877 442.673C478.345 443.141 478.98 443.404 479.642 443.404C480.211 443.405 480.779 443.355 481.339 443.254C481.849 444.043 482.126 444.96 482.138 445.9C482.138 447.224 481.612 448.494 480.676 449.43C479.739 450.366 478.47 450.892 477.146 450.892C475.968 450.893 474.827 450.478 473.926 449.719C473.416 449.295 472.759 449.091 472.099 449.152C471.439 449.213 470.83 449.534 470.406 450.043C469.983 450.553 469.779 451.21 469.84 451.87C469.901 452.53 470.221 453.139 470.731 453.563C471.11 453.866 471.51 454.141 471.929 454.386C471.736 454.829 471.418 455.206 471.015 455.472C470.612 455.738 470.141 455.881 469.658 455.884C468.996 455.884 468.361 455.621 467.893 455.153C467.425 454.685 467.162 454.05 467.162 453.388V448.396C467.167 447.374 467.486 446.379 468.075 445.544C468.664 444.709 469.496 444.076 470.456 443.728C471.085 443.516 471.604 443.063 471.899 442.469C472.194 441.875 472.241 441.187 472.029 440.558C471.817 439.929 471.364 439.41 470.77 439.116C470.175 438.821 469.488 438.774 468.859 438.986C468.273 439.207 467.705 439.474 467.162 439.785V435.916C467.167 434.894 467.486 433.899 468.075 433.064C468.664 432.229 469.496 431.595 470.456 431.248C471.085 431.036 471.604 430.583 471.899 429.989C472.194 429.394 472.241 428.707 472.029 428.078C471.817 427.449 471.364 426.93 470.77 426.635C470.175 426.34 469.488 426.294 468.859 426.506C468.273 426.726 467.705 426.993 467.162 427.304V418.443C467.162 417.781 467.425 417.147 467.893 416.678C468.361 416.21 468.996 415.947 469.658 415.947C470.32 415.947 470.954 416.21 471.423 416.678C471.891 417.147 472.154 417.781 472.154 418.443C472.15 418.88 472.039 419.309 471.829 419.691C471.663 419.975 471.555 420.288 471.51 420.614C471.465 420.939 471.485 421.27 471.569 421.588C471.652 421.905 471.797 422.204 471.996 422.465C472.195 422.726 472.444 422.946 472.728 423.111C473.013 423.276 473.327 423.383 473.654 423.426C473.98 423.469 474.312 423.447 474.63 423.361C474.948 423.275 475.245 423.127 475.506 422.926C475.766 422.724 475.984 422.474 476.147 422.188C476.334 421.783 476.493 421.366 476.622 420.939C476.795 420.915 476.972 420.915 477.146 420.939C477.808 420.939 478.443 421.202 478.911 421.671C479.379 422.139 479.642 422.774 479.642 423.436C479.638 423.925 479.49 424.402 479.217 424.808C479.013 425.132 478.73 425.399 478.394 425.582C477.818 425.913 477.397 426.459 477.224 427.101C477.051 427.742 477.139 428.426 477.47 429.002C477.801 429.578 478.347 429.998 478.989 430.172C479.63 430.345 480.314 430.256 480.89 429.925C481.338 429.683 481.757 429.39 482.138 429.052C482.97 429.515 483.653 430.207 484.105 431.046C484.556 431.884 484.759 432.835 484.688 433.785C484.617 434.735 484.276 435.645 483.705 436.407C483.133 437.17 482.356 437.753 481.464 438.087H481.364Z" fill="#FF69B4" style="fill:#FF69B4;fill:color(display-p3 1.0000 0.4118 0.7059);fill-opacity:1;"/>
<defs>
<filter id="filter0_d_53_761" x="363" y="266" width="36.6259" height="58" filterUnits="userSpaceOnUse" color-interpolation-filters="sRGB">
<feFlood flood-opacity="0" result="BackgroundImageFix"/>
<feColorMatrix in="SourceAlpha" type="matrix" values="0 0 0 0 0 0 0 0 0 0 0 0 0 0 0 0 0 0 127 0" result="hardAlpha"/>
<feOffset dy="4"/>
<feGaussianBlur stdDeviation="2"/>
<feComposite in2="hardAlpha" operator="out"/>
<feColorMatrix type="matrix" values="0 0 0 0 0 0 0 0 0 0 0 0 0 0 0 0 0 0 0.25 0"/>
<feBlend mode="normal" in2="BackgroundImageFix" result="effect1_dropShadow_53_761"/>
<feBlend mode="normal" in="SourceGraphic" in2="effect1_dropShadow_53_761" result="shape"/>
</filter>
</defs>
</svg>
